<svg width="300" height="300" viewBox="0 0 300 300" fill="none" xmlns="http://www.w3.org/2000/svg">
<circle cx="150" cy="150" r="150" fill="url(#paint0_linear)"/>
<rect x="53.45" y="53.9579" width="192.846" height="192.371" rx="24.4519" stroke="white" stroke-width="4.27492"/>
<rect x="76.962" y="81.2699" width="146.772" height="22.7995" rx="4.78834" stroke="white" stroke-width="2.84994"/>
<rect x="76.962" y="81.2699" width="146.772" height="22.7995" rx="4.78834" stroke="white" stroke-width="2.84994"/>
<rect x="76.962" y="145.823" width="146.772" height="22.7995" rx="4.78834" stroke="white" stroke-width="2.84994"/>
<rect x="76.962" y="145.823" width="146.772" height="22.7995" rx="4.78834" stroke="white" stroke-opacity="0.1" stroke-width="2.84994"/>
<path fill-rule="evenodd" clip-rule="evenodd" d="M81.7252 176.743C78.2936 176.743 75.5118 179.525 75.5118 182.956V214.088C75.5118 217.52 78.2936 220.302 81.7252 220.302H218.729C222.161 220.302 224.942 217.52 224.942 214.088V182.956C224.942 179.525 222.161 176.743 218.729 176.743H81.7252ZM113.22 205.641C111.469 205.641 109.718 204.765 107.967 203.015L105.558 206.351L105.836 206.691C106.268 207.186 107.01 207.752 108.06 208.39C109.255 209.132 110.625 209.503 112.169 209.503C114.229 209.503 116.031 208.782 117.576 207.34C119.121 205.878 119.893 204.178 119.893 202.242C119.893 201.068 119.564 200.069 118.905 199.245C118.246 198.421 117.442 197.803 116.495 197.391C115.568 196.959 114.631 196.568 113.683 196.217C112.756 195.867 111.963 195.466 111.304 195.013C110.645 194.539 110.316 194.003 110.316 193.406C110.316 192.809 110.542 192.335 110.995 191.985C111.469 191.614 112.077 191.429 112.818 191.429C113.58 191.429 114.456 191.624 115.444 192.016C116.454 192.386 117.247 192.798 117.823 193.251L119.924 188.741C119.08 188.349 118.204 188.051 117.298 187.845C116.392 187.639 115.455 187.536 114.487 187.536C112.365 187.536 110.532 188.215 108.987 189.575C107.442 190.914 106.67 192.51 106.67 194.364C106.67 195.538 106.999 196.537 107.659 197.361C108.318 198.184 109.111 198.823 110.038 199.276C110.964 199.709 111.891 200.1 112.818 200.45C113.766 200.8 114.569 201.212 115.228 201.686C115.887 202.139 116.217 202.706 116.217 203.385C116.217 204.044 115.939 204.59 115.383 205.023C114.847 205.435 114.126 205.641 113.22 205.641ZM123.475 208.082C124.175 208.802 125.082 209.163 126.194 209.163C127.553 209.163 129.16 208.123 131.014 206.042C131.158 206.846 131.57 207.917 132.25 209.256L135.463 207.834C134.783 206.496 134.443 205.167 134.443 203.849L134.412 201.315L134.783 193.591L130.612 194.364L130.952 202.489V204.343C129.716 205.043 128.748 205.394 128.048 205.394C127.347 205.394 126.832 205.188 126.503 204.776C126.194 204.364 126.039 203.715 126.039 202.829L126.441 193.437L122.301 194.209L122.641 201.624L122.456 205.177C122.456 206.372 122.795 207.34 123.475 208.082ZM149.791 195.352C148.926 194.158 147.804 193.56 146.424 193.56C145.806 193.56 145.147 193.797 144.446 194.271C143.746 194.724 143.231 195.136 142.901 195.507C142.572 195.878 142.294 196.228 142.067 196.557V193.221L142.469 185.249L138.236 186.022L138.607 201.655L138.298 208.669C140.728 208.998 142.459 209.163 143.488 209.163C145.734 209.163 147.556 208.308 148.957 206.598C150.378 204.868 151.089 202.654 151.089 199.956C151.089 198.082 150.656 196.547 149.791 195.352ZM142.067 198.442C143.221 197.865 144.271 197.577 145.219 197.577C146.846 197.577 147.659 198.957 147.659 201.717C147.659 204.456 146.671 205.826 144.693 205.826C143.931 205.826 143.118 205.775 142.253 205.672L142.067 201.13V198.442ZM162.243 198.504C162.49 198.977 162.614 199.925 162.614 201.346L162.243 209.317L166.414 208.545L166.074 201.13L166.198 198.813C167.31 198.133 168.309 197.793 169.195 197.793C170.08 197.793 170.647 198.03 170.894 198.504C171.141 198.977 171.265 199.925 171.265 201.346L170.894 209.317L175.065 208.545L174.725 201.13L174.91 197.67C174.91 196.413 174.591 195.424 173.953 194.704C173.314 193.962 172.449 193.591 171.357 193.591C169.607 193.591 167.876 194.631 166.167 196.712C166.002 195.744 165.621 194.982 165.024 194.425C164.426 193.869 163.695 193.591 162.83 193.591C161.965 193.591 161.11 193.849 160.266 194.364C159.421 194.858 158.803 195.311 158.412 195.723C158.021 196.114 157.67 196.516 157.361 196.928C157.3 195.795 157.197 194.631 157.053 193.437L153.314 194.24C153.685 196.423 153.911 198.895 153.994 201.655L153.623 209.163L157.763 208.39L157.423 201.13V198.875C158.577 198.154 159.607 197.793 160.513 197.793C161.419 197.793 161.996 198.03 162.243 198.504ZM182.225 201.13L182.595 193.437L178.455 194.209L178.795 201.655L178.424 209.163L182.564 208.39L182.225 201.13ZM179.042 187.072C178.507 187.608 178.239 188.226 178.239 188.926C178.239 189.606 178.435 190.172 178.826 190.625C179.217 191.078 179.753 191.305 180.433 191.305C181.133 191.305 181.74 191.037 182.255 190.502C182.791 189.946 183.059 189.286 183.059 188.524C183.059 187.762 182.873 187.196 182.503 186.825C182.132 186.434 181.596 186.238 180.896 186.238C180.196 186.238 179.578 186.516 179.042 187.072ZM187.203 190.842V194.209H185.411L185.071 196.743H187.203L187.234 201.624L187.049 205.085C187.049 206.3 187.378 207.289 188.037 208.051C188.696 208.792 189.541 209.163 190.571 209.163C191.601 209.163 192.795 208.596 194.155 207.464L193.969 205.27C193.145 205.497 192.486 205.61 191.992 205.61C191.498 205.61 191.158 205.455 190.972 205.146C190.787 204.817 190.694 204.168 190.694 203.2L190.849 196.743H194.371L194.711 194.209H190.972L191.374 190.038L187.203 190.842Z" fill="white"/>
<path fill-rule="evenodd" clip-rule="evenodd" d="M81.7252 176.743C78.2936 176.743 75.5118 179.525 75.5118 182.956V214.088C75.5118 217.52 78.2936 220.302 81.7252 220.302H218.729C222.161 220.302 224.942 217.52 224.942 214.088V182.956C224.942 179.525 222.161 176.743 218.729 176.743H81.7252ZM113.22 205.641C111.469 205.641 109.718 204.765 107.967 203.015L105.558 206.351L105.836 206.691C106.268 207.186 107.01 207.752 108.06 208.39C109.255 209.132 110.625 209.503 112.169 209.503C114.229 209.503 116.031 208.782 117.576 207.34C119.121 205.878 119.893 204.178 119.893 202.242C119.893 201.068 119.564 200.069 118.905 199.245C118.246 198.421 117.442 197.803 116.495 197.391C115.568 196.959 114.631 196.568 113.683 196.217C112.756 195.867 111.963 195.466 111.304 195.013C110.645 194.539 110.316 194.003 110.316 193.406C110.316 192.809 110.542 192.335 110.995 191.985C111.469 191.614 112.077 191.429 112.818 191.429C113.58 191.429 114.456 191.624 115.444 192.016C116.454 192.386 117.247 192.798 117.823 193.251L119.924 188.741C119.08 188.349 118.204 188.051 117.298 187.845C116.392 187.639 115.455 187.536 114.487 187.536C112.365 187.536 110.532 188.215 108.987 189.575C107.442 190.914 106.67 192.51 106.67 194.364C106.67 195.538 106.999 196.537 107.659 197.361C108.318 198.184 109.111 198.823 110.038 199.276C110.964 199.709 111.891 200.1 112.818 200.45C113.766 200.8 114.569 201.212 115.228 201.686C115.887 202.139 116.217 202.706 116.217 203.385C116.217 204.044 115.939 204.59 115.383 205.023C114.847 205.435 114.126 205.641 113.22 205.641ZM123.475 208.082C124.175 208.802 125.082 209.163 126.194 209.163C127.553 209.163 129.16 208.123 131.014 206.042C131.158 206.846 131.57 207.917 132.25 209.256L135.463 207.834C134.783 206.496 134.443 205.167 134.443 203.849L134.412 201.315L134.783 193.591L130.612 194.364L130.952 202.489V204.343C129.716 205.043 128.748 205.394 128.048 205.394C127.347 205.394 126.832 205.188 126.503 204.776C126.194 204.364 126.039 203.715 126.039 202.829L126.441 193.437L122.301 194.209L122.641 201.624L122.456 205.177C122.456 206.372 122.795 207.34 123.475 208.082ZM149.791 195.352C148.926 194.158 147.804 193.56 146.424 193.56C145.806 193.56 145.147 193.797 144.446 194.271C143.746 194.724 143.231 195.136 142.901 195.507C142.572 195.878 142.294 196.228 142.067 196.557V193.221L142.469 185.249L138.236 186.022L138.607 201.655L138.298 208.669C140.728 208.998 142.459 209.163 143.488 209.163C145.734 209.163 147.556 208.308 148.957 206.598C150.378 204.868 151.089 202.654 151.089 199.956C151.089 198.082 150.656 196.547 149.791 195.352ZM142.067 198.442C143.221 197.865 144.271 197.577 145.219 197.577C146.846 197.577 147.659 198.957 147.659 201.717C147.659 204.456 146.671 205.826 144.693 205.826C143.931 205.826 143.118 205.775 142.253 205.672L142.067 201.13V198.442ZM162.243 198.504C162.49 198.977 162.614 199.925 162.614 201.346L162.243 209.317L166.414 208.545L166.074 201.13L166.198 198.813C167.31 198.133 168.309 197.793 169.195 197.793C170.08 197.793 170.647 198.03 170.894 198.504C171.141 198.977 171.265 199.925 171.265 201.346L170.894 209.317L175.065 208.545L174.725 201.13L174.91 197.67C174.91 196.413 174.591 195.424 173.953 194.704C173.314 193.962 172.449 193.591 171.357 193.591C169.607 193.591 167.876 194.631 166.167 196.712C166.002 195.744 165.621 194.982 165.024 194.425C164.426 193.869 163.695 193.591 162.83 193.591C161.965 193.591 161.11 193.849 160.266 194.364C159.421 194.858 158.803 195.311 158.412 195.723C158.021 196.114 157.67 196.516 157.361 196.928C157.3 195.795 157.197 194.631 157.053 193.437L153.314 194.24C153.685 196.423 153.911 198.895 153.994 201.655L153.623 209.163L157.763 208.39L157.423 201.13V198.875C158.577 198.154 159.607 197.793 160.513 197.793C161.419 197.793 161.996 198.03 162.243 198.504ZM182.225 201.13L182.595 193.437L178.455 194.209L178.795 201.655L178.424 209.163L182.564 208.39L182.225 201.13ZM179.042 187.072C178.507 187.608 178.239 188.226 178.239 188.926C178.239 189.606 178.435 190.172 178.826 190.625C179.217 191.078 179.753 191.305 180.433 191.305C181.133 191.305 181.74 191.037 182.255 190.502C182.791 189.946 183.059 189.286 183.059 188.524C183.059 187.762 182.873 187.196 182.503 186.825C182.132 186.434 181.596 186.238 180.896 186.238C180.196 186.238 179.578 186.516 179.042 187.072ZM187.203 190.842V194.209H185.411L185.071 196.743H187.203L187.234 201.624L187.049 205.085C187.049 206.3 187.378 207.289 188.037 208.051C188.696 208.792 189.541 209.163 190.571 209.163C191.601 209.163 192.795 208.596 194.155 207.464L193.969 205.27C193.145 205.497 192.486 205.61 191.992 205.61C191.498 205.61 191.158 205.455 190.972 205.146C190.787 204.817 190.694 204.168 190.694 203.2L190.849 196.743H194.371L194.711 194.209H190.972L191.374 190.038L187.203 190.842Z" fill="white"/>
<path d="M76.962 118.358C76.962 115.713 79.1058 113.569 81.7503 113.569H218.946C221.59 113.569 223.734 115.713 223.734 118.358V131.58C223.734 134.225 221.59 136.369 218.946 136.369H81.7503C79.1058 136.369 76.962 134.225 76.962 131.58V118.358Z" stroke="white" stroke-width="2.84994"/>
<path d="M76.962 118.358C76.962 115.713 79.1058 113.569 81.7503 113.569H218.946C221.59 113.569 223.734 115.713 223.734 118.358V131.58C223.734 134.225 221.59 136.369 218.946 136.369H81.7503C79.1058 136.369 76.962 134.225 76.962 131.58V118.358Z" stroke="white" stroke-width="2.84994"/>
<path d="M117.911 118.557L104.653 131.875" stroke="white" stroke-width="2.84994" stroke-linecap="round"/>
<path d="M104.653 117.077L117.911 130.395" stroke="white" stroke-width="2.84994" stroke-linecap="round"/>
<path d="M143.874 118.557L130.617 131.875" stroke="white" stroke-width="2.84994" stroke-linecap="round"/>
<path d="M130.617 117.077L143.874 130.395" stroke="white" stroke-width="2.84994" stroke-linecap="round"/>
<path d="M169.838 118.557L156.58 131.875" stroke="white" stroke-width="2.84994" stroke-linecap="round"/>
<path d="M156.58 117.077L169.838 130.395" stroke="white" stroke-width="2.84994" stroke-linecap="round"/>
<path d="M195.801 118.557L182.543 131.875" stroke="white" stroke-width="2.84994" stroke-linecap="round"/>
<path d="M182.543 117.077L195.801 130.395" stroke="white" stroke-width="2.84994" stroke-linecap="round"/>
<defs>
<linearGradient id="paint0_linear" x1="150" y1="0" x2="150" y2="300" gradientUnits="userSpaceOnUse">
<stop stop-color="#00C9A0"/>
<stop offset="1" stop-color="#019DF7"/>
</linearGradient>
</defs>
</svg>
